<?xml version="1.0" encoding="utf-8"?>
<!-- Generator: Adobe Illustrator 16.0.4, SVG Export Plug-In . SVG Version: 6.00 Build 0)  -->
<!DOCTYPE svg PUBLIC "-//W3C//DTD SVG 1.1//EN" "http://www.w3.org/Graphics/SVG/1.1/DTD/svg11.dtd">
<svg version="1.1" id="Layer_1" xmlns="http://www.w3.org/2000/svg" xmlns:xlink="http://www.w3.org/1999/xlink" x="0px" y="0px"
	 width="250.236px" height="230.907px" viewBox="0 0 250.236 230.907" enable-background="new 0 0 250.236 230.907"
	 xml:space="preserve">
<g>
	<path fill="#B7C534" d="M125.117,0c-53.08,0-96.265,43.299-96.265,96.523c0,53.224,43.185,96.521,96.265,96.521
		c53.081,0,96.268-43.299,96.268-96.521C221.384,43.299,178.197,0,125.117,0z M56.927,150.987
		c9.406-34.701,29.866-65.106,58.774-87.161c-4.338-3.598-8.828-7.016-13.455-10.244c-26.965,20.902-46.185,49.851-54.884,82.53
		c-2.15-4.234-3.967-8.664-5.416-13.258c9.995-29.157,28.061-54.999,52.347-74.547c-4.95-3.11-10.034-6.02-15.254-8.704
		c-17.62,14.883-31.608,33.391-41.087,54.188c0.306-9.971,2.285-19.527,5.663-28.395c7.552-11.025,16.455-21.136,26.549-30.095
		c-1.667-0.76-3.349-1.496-5.039-2.213c2.438-2.317,5.008-4.5,7.699-6.526c40.68,18.223,74.629,48.832,97.023,87.605
		c3.531-4.641,6.802-9.49,9.8-14.512c-20.641-36.179-52.207-65.386-89.73-83.159c3.791-1.684,7.724-3.104,11.773-4.238
		c34.104,17.941,63.018,45.078,83.049,78.146c3.16-6.221,5.935-12.66,8.237-19.31C176.25,45.909,153.972,24.65,128.104,9.105
		c7.397,0.252,14.567,1.432,21.391,3.426c17.967,13.264,33.83,29.315,46.854,47.514c0.907-3.438,1.678-6.926,2.34-10.449
		c2.484,3.904,4.666,8.021,6.519,12.312c-14.399,55.142-57.351,99.673-111.944,116.044c-6.396-2.527-12.423-5.793-17.98-9.689
		c9.61-34.586,30.315-65.024,59.137-86.82c-3.75-4.011-7.672-7.854-11.727-11.543c-29.699,22.114-50.188,53.439-58.442,89.199
		C61.646,156.552,59.198,153.843,56.927,150.987z M114.222,183.311c46.438-16.017,82.429-53.021,97.136-99.858
		c0.642,4.266,0.976,8.629,0.976,13.07c0,3.679-0.229,7.306-0.675,10.867c-15.504,32.654-41.387,59.255-73.627,75.642
		c-4.215,0.631-8.526,0.963-12.914,0.963C121.427,183.995,117.791,183.76,114.222,183.311z"/>
	<path fill="#B7C534" d="M112.988,160.635c19.477-9.356,36.733-22.711,50.721-38.926c-2.498-4.5-5.123-8.914-7.938-13.186
		C137.828,122.622,123.211,140.387,112.988,160.635z"/>
	<path fill="#B7C534" d="M83.821,171.165c5.695-1.42,11.262-3.172,16.694-5.213c10.907-25.5,28.13-47.842,50.063-64.947
		c-3.196-4.411-6.584-8.665-10.107-12.79C112.789,108.942,92.902,138.044,83.821,171.165z"/>
</g>
<path fill="none" stroke="#B7C534" stroke-width="12" stroke-miterlimit="10" d="M105.497,181.022c0,0-52.525,6.067-54,22
	c-1.667,18,34,19.667,54,16c15.769-2.893,53.243-13.591,79-24.333c32.766-13.667,54.231-10.523,58.667,3.666
	c6.667,21.334-49.001,29.333-59.667,25"/>
</svg>
