<?xml version="1.0" encoding="utf-8"?>
<!-- Generator: Adobe Illustrator 16.0.4, SVG Export Plug-In . SVG Version: 6.00 Build 0)  -->
<!DOCTYPE svg PUBLIC "-//W3C//DTD SVG 1.1//EN" "http://www.w3.org/Graphics/SVG/1.1/DTD/svg11.dtd">
<svg version="1.1" id="Capa_1" xmlns="http://www.w3.org/2000/svg" xmlns:xlink="http://www.w3.org/1999/xlink" x="0px" y="0px"
	 width="576px" height="504px" viewBox="0 0 576 504" enable-background="new 0 0 576 504" xml:space="preserve">
<g>
	<g>
		<path fill="#FF0000" d="M351,221.429V126h-94.5V94.5h63L225,0l-94.5,94.5h63V126H99v252h94.5v31.5h-63L225,504l27.137-27.138
			c23.341,16.979,52.006,27.122,83.113,27.138c78.293-0.031,141.719-63.457,141.75-141.75
			C476.969,289.265,421.859,229.257,351,221.429z M194.429,346.5H130.5v-189h189v63.929
			C253.791,228.69,201.69,280.807,194.429,346.5z M335.25,470.657c-59.866-0.142-108.297-48.573-108.439-108.407
			c0.142-59.865,48.573-108.297,108.439-108.439c59.834,0.143,108.266,48.574,108.407,108.439
			C443.516,422.084,395.084,470.516,335.25,470.657z"/>
		<polygon fill="#FF0000" points="351.031,346.5 351.031,283.5 319.5,283.5 319.5,346.5 256.5,346.5 256.5,378 319.5,378 319.5,441 
			351.031,441 351.031,378 414,378 414,346.5 		"/>
	</g>
</g>
</svg>
