<?xml version="1.0" encoding="utf-8"?>
<!-- Generator: Adobe Illustrator 16.0.4, SVG Export Plug-In . SVG Version: 6.00 Build 0)  -->
<!DOCTYPE svg PUBLIC "-//W3C//DTD SVG 1.1//EN" "http://www.w3.org/Graphics/SVG/1.1/DTD/svg11.dtd">
<svg version="1.1" id="Capa_1" xmlns="http://www.w3.org/2000/svg" xmlns:xlink="http://www.w3.org/1999/xlink" x="0px" y="0px"
	 width="24px" height="24px" viewBox="0 0 24 24" enable-background="new 0 0 24 24" xml:space="preserve">
<g>
	<path fill="#FF0000" d="M24,4.55c-0.7,1-1.5,1.9-2.5,2.6c0,0.2,0,0.4,0,0.6c0,6.5-4.9,14-14,14c-2.7,0-5.3-0.8-7.5-2.2
		c0.4,0.101,0.8,0.101,1.2,0.101c2.3,0,4.4-0.801,6.1-2.103c-2.2,0-4-1.397-4.6-3.397c0.3,0.101,0.6,0.101,0.9,0.101
		c0.5,0,0.9-0.101,1.3-0.2C2.7,13.65,1,11.65,1,9.25c0-0.1,0-0.1,0-0.1c0.6,0.3,1.4,0.5,2.2,0.6C1.9,8.85,1,7.35,1,5.65
		c0-0.9,0.2-1.8,0.7-2.5c2.4,3,6,4.9,10.1,5.1c-0.1-0.3-0.1-0.7-0.1-1.1c0-2.7,2.2-4.9,4.899-4.9c1.399,0,2.699,0.6,3.699,1.6
		c1.102-0.2,2.102-0.6,3.102-1.2c-0.4,1.1-1.2,2.1-2.2,2.7C22.2,5.25,23.1,4.95,24,4.55z"/>
</g>
</svg>
