<?xml version="1.0" encoding="utf-8"?>
<!-- Generator: Adobe Illustrator 16.0.4, SVG Export Plug-In . SVG Version: 6.00 Build 0)  -->
<!DOCTYPE svg PUBLIC "-//W3C//DTD SVG 1.1//EN" "http://www.w3.org/Graphics/SVG/1.1/DTD/svg11.dtd">
<svg version="1.1" id="Capa_1" xmlns="http://www.w3.org/2000/svg" xmlns:xlink="http://www.w3.org/1999/xlink" x="0px" y="0px"
	 width="620.692px" height="620.692px" viewBox="0 0 620.692 620.692" enable-background="new 0 0 620.692 620.692"
	 xml:space="preserve">
<g>
	<g id="zoom-in">
		<g>
			<path fill="#FF0000" d="M346.133,227.862h-37.977v-37.977c0-20.982-16.995-37.977-37.977-37.977s-37.977,16.995-37.977,37.977
				v37.977h-37.977c-20.982,0-37.977,16.995-37.977,37.977s16.995,37.977,37.977,37.977h37.977v37.978
				c0,20.982,16.995,37.977,37.977,37.977c20.982,0,37.977-16.994,37.977-37.977v-37.978h37.977
				c20.982,0,37.978-16.995,37.978-37.977S367.116,227.862,346.133,227.862z M605.233,555.85L479.167,429.786
				c35.49-45.191,56.852-102.025,56.852-163.947C536.018,119.02,416.999,0,270.18,0C123.36,0,4.34,119.02,4.34,265.839
				c0,146.82,119.02,265.839,265.839,265.839c57.478,0,110.532-18.42,154.017-49.428l127.316,127.318
				c14.83,14.83,38.869,14.83,53.699,0C620.063,594.739,620.063,570.68,605.233,555.85z M417.778,399.557
				c-5.07,1.842-9.895,4.537-13.957,8.619c-3.74,3.742-6.514,8.07-8.373,12.686c-34.236,27.705-77.797,44.357-125.268,44.357
				c-110.115,0-199.379-89.266-199.379-199.379S160.065,66.46,270.18,66.46s199.379,89.265,199.379,199.379
				C469.559,317.356,449.848,364.163,417.778,399.557z"/>
		</g>
	</g>
</g>
</svg>
