<?xml version="1.0" encoding="utf-8"?>
<!-- Generator: Adobe Illustrator 16.0.4, SVG Export Plug-In . SVG Version: 6.00 Build 0)  -->
<!DOCTYPE svg PUBLIC "-//W3C//DTD SVG 1.1//EN" "http://www.w3.org/Graphics/SVG/1.1/DTD/svg11.dtd">
<svg version="1.1" id="Capa_1" xmlns="http://www.w3.org/2000/svg" xmlns:xlink="http://www.w3.org/1999/xlink" x="0px" y="0px"
	 width="73.17px" height="73.17px" viewBox="0 0 73.17 73.17" enable-background="new 0 0 73.17 73.17" xml:space="preserve">
<g>
	<g id="Zoom_In">
		<g>
			<path fill="#FF0000" d="M68.912,11.169h-6.201V4.288c0-2.37-1.905-4.288-4.258-4.288C56.104,0,54.2,1.918,54.2,4.288v6.882
				h-6.205c-2.352,0-4.258,1.918-4.258,4.288c0,2.361,1.906,4.279,4.258,4.279H54.2v5.597c0,2.361,1.902,4.279,4.253,4.279
				c2.353,0,4.258-1.918,4.258-4.279v-5.597h6.201c2.353,0,4.258-1.918,4.258-4.279C73.17,13.087,71.265,11.169,68.912,11.169z
				 M42.147,54.914c2.455-3.683,3.892-8.108,3.892-12.868c0-12.778-10.322-23.166-23.02-23.166C10.328,18.879,0,29.268,0,42.045
				c0,12.771,10.328,23.159,23.02,23.159c4.896,0,9.435-1.551,13.169-4.18l10.821,10.89c0.831,0.842,1.919,1.256,3.011,1.256
				c1.09,0,2.176-0.414,3.008-1.248c1.662-1.678,1.662-4.386,0-6.062L42.147,54.914z M23.02,56.646
				c-7.998,0-14.508-6.553-14.508-14.601c0-8.056,6.51-14.599,14.508-14.599c8,0,14.508,6.543,14.508,14.599
				C37.528,50.093,31.02,56.646,23.02,56.646z"/>
		</g>
	</g>
</g>
</svg>
