<?xml version="1.0" encoding="utf-8"?>
<!-- Generator: Adobe Illustrator 16.0.4, SVG Export Plug-In . SVG Version: 6.00 Build 0)  -->
<!DOCTYPE svg PUBLIC "-//W3C//DTD SVG 1.1//EN" "http://www.w3.org/Graphics/SVG/1.1/DTD/svg11.dtd">
<svg version="1.1" id="Capa_1" xmlns="http://www.w3.org/2000/svg" xmlns:xlink="http://www.w3.org/1999/xlink" x="0px" y="0px"
	 width="723.266px" height="723.266px" viewBox="0 0 723.266 723.266" enable-background="new 0 0 723.266 723.266"
	 xml:space="preserve">
<g>
	<g>
		<path fill="#FF0000" d="M361.104,404.381c12.771,0,24.138-5.545,32.167-14.221h63.636c16.383,0,29.66-13.299,29.66-29.683
			c0-16.372-13.288-29.683-29.66-29.683H393.25c-6.788-7.363-16.038-12.288-26.496-13.645l-56.697-79.812
			c-9.503-13.346-28.038-16.487-41.384-6.983c-13.346,9.48-16.487,28.015-7.006,41.383l56.559,79.615
			c-0.621,2.957-0.978,5.982-0.978,9.124C317.258,384.743,336.897,404.381,361.104,404.381z"/>
		<path fill="#FF0000" d="M440.19,65.65l7.007,6.523c6.868,6.408,10.813,15.486,10.813,24.874c0,9.388-3.935,18.443-10.813,24.851
			l-22.805,21.25c88.556,26.013,154.929,104.132,163.097,198.945h-26.657c-10.906,0-19.777,8.859-19.777,19.777
			c0,10.941,8.884,19.8,19.777,19.8h26.75C578.723,484.11,501.869,567.167,402.5,585.885v-42.834c0-5.648-3.359-10.77-8.525-13.035
			c-5.211-2.242-11.24-1.195-15.383,2.646l-89.049,82.996c-2.865,2.693-4.51,6.455-4.51,10.412c0,3.936,1.645,7.697,4.51,10.391
			l89.049,82.996c4.143,3.844,10.172,4.891,15.383,2.623c5.166-2.266,8.525-7.385,8.525-13.012v-42.938
			c0.333-0.021,0.645,0.104,0.979,0.068c149.301-21.031,264.155-149.23,264.155-304.32
			C667.633,219.841,571.083,100.867,440.19,65.65z"/>
		<path fill="#FF0000" d="M265.255,626.223c0-9.389,3.935-18.443,10.815-24.852l22.803-21.25
			c-88.554-26.014-154.927-104.133-163.096-198.945h26.657c10.907,0,19.777-8.857,19.777-19.777
			c0-10.941-8.871-19.777-19.777-19.777h-26.749c8.859-102.464,85.712-185.519,185.082-204.238v42.833
			c0,5.649,3.36,10.769,8.525,13.035c5.212,2.244,11.241,1.196,15.371-2.646l89.049-82.998c2.876-2.692,4.51-6.455,4.51-10.412
			c0-3.935-1.645-7.697-4.51-10.389L344.664,3.81c-4.142-3.854-10.171-4.89-15.371-2.623c-5.166,2.267-8.525,7.386-8.525,13.012
			v42.937c-0.333,0.023-0.644-0.115-0.978-0.069C170.488,78.11,55.633,206.311,55.633,361.399
			c0,142.017,96.539,260.992,227.443,296.22l-7.006-6.512C269.19,644.688,265.255,635.61,265.255,626.223z"/>
	</g>
</g>
</svg>
