<?xml version="1.0" encoding="utf-8"?>
<!-- Generator: Adobe Illustrator 16.0.0, SVG Export Plug-In . SVG Version: 6.00 Build 0)  -->
<!DOCTYPE svg PUBLIC "-//W3C//DTD SVG 1.1//EN" "http://www.w3.org/Graphics/SVG/1.1/DTD/svg11.dtd">
<svg version="1.1" id="Layer_1" xmlns="http://www.w3.org/2000/svg" xmlns:xlink="http://www.w3.org/1999/xlink" x="0px" y="0px"
	 width="403.473px" height="338.814px" viewBox="0 0 403.473 338.814" enable-background="new 0 0 403.473 338.814"
	 xml:space="preserve">
<g>
	<path fill="#B7C534" d="M257.267,77.165c-53.079,0-96.264,43.3-96.264,96.523c0,53.224,43.185,96.523,96.264,96.523
		c53.082,0,96.268-43.299,96.268-96.523C353.534,120.464,310.349,77.165,257.267,77.165z M189.077,228.152
		c9.406-34.7,29.867-65.106,58.775-87.161c-4.338-3.597-8.829-7.015-13.455-10.243c-26.965,20.902-46.185,49.849-54.885,82.529
		c-2.15-4.234-3.967-8.663-5.416-13.257c9.995-29.158,28.061-54.999,52.347-74.546c-4.95-3.112-10.034-6.019-15.253-8.706
		c-17.62,14.884-31.609,33.391-41.088,54.191c0.306-9.971,2.285-19.528,5.663-28.396c7.552-11.025,16.455-21.135,26.549-30.094
		c-1.667-0.759-3.348-1.495-5.038-2.211c2.438-2.32,5.008-4.501,7.699-6.529c40.68,18.224,74.628,48.833,97.023,87.608
		c3.531-4.642,6.801-9.491,9.799-14.512c-20.64-36.179-52.207-65.387-89.731-83.159c3.792-1.684,7.724-3.105,11.774-4.239
		c34.104,17.942,63.017,45.079,83.049,78.146c3.16-6.221,5.934-12.659,8.238-19.308c-16.726-25.188-39.004-46.448-64.873-61.992
		c7.398,0.252,14.568,1.431,21.391,3.426c17.966,13.264,33.83,29.316,46.854,47.514c0.907-3.438,1.678-6.926,2.34-10.45
		c2.484,3.904,4.666,8.019,6.517,12.311c-14.399,55.141-57.349,99.672-111.944,116.043c-6.396-2.527-12.423-5.793-17.98-9.689
		c9.61-34.586,30.315-65.025,59.136-86.822c-3.75-4.009-7.671-7.852-11.726-11.542c-29.7,22.114-50.188,53.441-58.442,89.2
		C193.796,233.717,191.348,231.008,189.077,228.152z M246.372,260.477c46.438-16.016,82.429-53.021,97.136-99.858
		c0.64,4.266,0.974,8.628,0.974,13.069c0,3.68-0.23,7.307-0.673,10.869c-15.505,32.654-41.388,59.253-73.628,75.64
		c-4.215,0.631-8.527,0.963-12.914,0.963C253.577,261.16,249.941,260.926,246.372,260.477z"/>
	<path fill="#B7C534" d="M245.139,237.801c19.476-9.357,36.733-22.711,50.72-38.925c-2.498-4.5-5.122-8.915-7.936-13.187
		C269.979,199.788,255.362,217.553,245.139,237.801z"/>
	<path fill="#B7C534" d="M215.97,248.33c5.696-1.42,11.262-3.172,16.695-5.213c10.907-25.5,28.129-47.841,50.064-64.946
		c-3.197-4.412-6.584-8.665-10.108-12.79C244.94,186.108,225.052,215.209,215.97,248.33z"/>
</g>
<g>
	<path fill="#FFFFFF" d="M306.442,259.877c3.014-3.467,5.869-7.174,7.688-9.609C312.765,251.986,309.272,256.377,306.442,259.877z"
		/>
	<path fill="#FFFFFF" d="M293.991,28.812c-6.941-4.515-16.236-2.546-20.754,4.397c-4.516,6.944-2.547,16.235,4.398,20.752
		c39.299,25.557,62.762,68.761,62.762,115.57c0,28.94-8.977,55.816-24.283,78.009l-0.5,0.713c0.057-0.078,0.121-0.168,0.168-0.232
		c-0.062,0.088-0.127,0.174-0.189,0.262l-0.869,1.238c0,0-0.102,0.127-0.271,0.342c-2.943,4.084-6.102,7.998-9.463,11.73
		c-0.266,0.303-0.529,0.596-0.795,0.885c-0.246,0.27-0.484,0.551-0.734,0.818c0.004-0.016,0.01-0.029,0.014-0.047
		c-3.633,3.828-6.891,6.289-6.891,6.289l8.846-19.936l0.598-1.352c0-0.004,0-0.008,0-0.012c2.756-3.301,4.047-7.77,3.125-12.312
		l-14.959-73.857c-1.607-7.941-9.35-13.076-17.293-11.47c-7.941,1.61-13.074,9.353-11.467,17.296l7.861,38.811
		c-7.6-2.469-16.119-3.479-25.121-2.682c-19,1.684-35.846,11.028-46.361,24.081c-3.246-4.691-8.254-10.635-15.977-17.605
		c-3.119-2.814-6.189-5.394-9.105-7.728c5.25-2.324,13.494-6.34,20.834-11.483c12.053-8.445,20.453-14.195,26.936-26.934
		c6.016-11.818,2.867-23.618,3.984-35.18c0.5-5.168-1.334-15.182-12.949-13.883c-9.383,1.05-12.385,8.215-8.838,17.74
		c2.207,5.932-3.988,23.239-19.379,30.553c-5.602,2.658-27.518,2.273-35.057,2.057l-1.437-8.1
		c12.417-4.805,26.094-12.219,29.803-25.01c6.947-23.963,2.638-50.428-7.412-62.787c1.705-13.477,4.399-39.688,1.218-41.979
		c-3.385-2.434-24.138,15.327-32.554,25.35c-4.762-0.721-7.952-0.631-7.952-0.631s1.647-6.74,3.434-14.457
		c1.873-8.107,3.863-17.242,2.66-18.525c-3.438-3.67-22.18,3.05-40.338,16.838c-6.783,5.15-12.945,11.064-18.498,17.46
		c-29.449,30.833-46.281,71.961-46.281,115.728c0,20.854,3.836,40.824,10.82,59.259c0.096,0.307,0.184,0.613,0.301,0.918
		c12.039,31.314,32.986,58.068,60.582,77.371c23.533,16.461,50.517,26.449,78.867,29.326c0.026,0.004,0.055,0.006,0.084,0.01
		c2.707,0.273,5.426,0.482,8.155,0.625c0.294,0.016,0.591,0.027,0.884,0.041c1.022,0.049,2.047,0.088,3.071,0.117
		c0.356,0.012,0.714,0.023,1.073,0.031c1.301,0.029,2.604,0.049,3.908,0.049c92.498,0,167.748-75.25,167.748-167.748
		C370.397,112.53,341.835,59.924,293.991,28.812z"/>
	<path fill="#FFFFFF" d="M314.452,249.863c0.381-0.527,0.77-1.047,1.141-1.58l0.021-0.029c-0.344,0.475-0.848,1.16-1.482,2.016
		C314.255,250.109,314.364,249.973,314.452,249.863z"/>
	<path fill="#FFFFFF" d="M306.442,259.877c-0.967,1.109-1.947,2.195-2.916,3.205c-0.018,0.057-0.035,0.111-0.055,0.168
		c0.24-0.252,0.48-0.51,0.721-0.771c0.27-0.293,0.529-0.59,0.795-0.885c0.486-0.553,0.973-1.119,1.449-1.713
		C306.44,259.879,306.44,259.879,306.442,259.877z"/>
</g>
<path fill="#2B2B2B" d="M158.992,136.711c-0.125-1.004-1.039-1.72-2.044-1.594c-6.273,0.776-11.67-4.38-13.162-5.964v-5.528
	c2.214-0.66,4.29-2.039,5.931-3.476c3.491-3.06,4.584-5.502-7.424-5.242c-19.451,0.423-5.75,7.523-6.114,7.21
	c1.268,1.086,2.604,1.641,3.943,1.831v5.257c-1.354,1.56-6.396,6.688-13.584,5.891c-1.018-0.104-1.913,0.613-2.023,1.617
	c-0.111,1.006,0.611,1.912,1.617,2.024c0.674,0.074,1.329,0.109,1.969,0.109c6.797,0,11.648-3.966,13.906-6.278
	c2.371,2.284,7.412,6.294,13.631,6.294c0.576,0,1.166-0.034,1.762-0.108C158.403,138.629,159.116,137.715,158.992,136.711z"/>
<g>
	<path fill="#B7C534" d="M206.611,104.69l-5.922-8.058c0.239-0.176,23.149-17.129,36.103-35.167
		c-3.523-2.525-6.313-5.199-8.449-7.603c-6.769-7.62-10.745-16.963-10.636-24.995c0.122-8.998,5.345-15.364,13.629-16.615
		c7.129-1.08,13.175,1.678,17.029,7.755c5.961,9.402,5.698,25.984,1.72,37.55c3.126,1.395,6.563,2.482,10.301,3.15
		c17.737,3.175,47.763,0.024,74.713-7.836c35.18-10.261,48.286-22.707,59.641-35.625l7.512,6.602
		c-11.875,13.51-26.625,27.62-64.352,38.624c-21.825,6.365-55.681,12.301-79.275,8.081c-4.952-0.886-9.317-2.318-13.139-4.059
		C231.684,86.153,207.654,103.924,206.611,104.69z M234.292,22.023c-0.463,0-0.95,0.04-1.462,0.117
		c-1.247,0.188-5.041,0.761-5.124,6.863c-0.092,6.745,4.604,16.277,13.567,23.267c2.427-8.745,2.502-20.828-1.353-26.907
		C238.478,23.089,236.707,22.023,234.292,22.023z"/>
</g>
</svg>
