<?xml version="1.0" encoding="utf-8"?>
<!-- Generator: Adobe Illustrator 16.0.0, SVG Export Plug-In . SVG Version: 6.00 Build 0)  -->
<!DOCTYPE svg PUBLIC "-//W3C//DTD SVG 1.1//EN" "http://www.w3.org/Graphics/SVG/1.1/DTD/svg11.dtd">
<svg version="1.1" id="Layer_1" xmlns="http://www.w3.org/2000/svg" xmlns:xlink="http://www.w3.org/1999/xlink" x="0px" y="0px"
	 width="320.621px" height="271.639px" viewBox="0 0 320.621 271.639" enable-background="new 0 0 320.621 271.639"
	 xml:space="preserve">
<g>
	<g>
		<path fill="#B7C534" d="M174.492,57.856c-50.676,0-91.904,41.34-91.904,92.153c0,50.814,41.229,92.154,91.904,92.154
			c50.68,0,91.91-41.34,91.91-92.154C266.402,99.196,225.172,57.856,174.492,57.856z M109.391,202.007
			c8.98-33.127,28.516-62.158,56.113-83.213c-4.141-3.436-8.427-6.697-12.844-9.78c-25.744,19.956-44.095,47.592-52.4,78.793
			c-2.055-4.043-3.789-8.273-5.172-12.66c9.542-27.836,26.791-52.506,49.977-71.168c-4.725-2.974-9.58-5.747-14.562-8.313
			c-16.821,14.21-30.176,31.88-39.227,51.74c0.291-9.521,2.182-18.645,5.406-27.111c7.211-10.525,15.709-20.179,25.348-28.732
			c-1.592-0.725-3.197-1.428-4.811-2.111c2.326-2.215,4.78-4.297,7.351-6.233c38.837,17.398,71.249,46.622,92.632,83.643
			c3.369-4.434,6.492-9.061,9.354-13.855c-19.705-34.541-49.842-62.427-85.668-79.394c3.621-1.607,7.373-2.966,11.24-4.048
			c32.561,17.131,60.164,43.038,79.289,74.608c3.018-5.939,5.666-12.086,7.865-18.432c-15.969-24.047-37.236-44.345-61.936-59.186
			c7.064,0.24,13.908,1.364,20.424,3.271c17.15,12.662,32.297,27.988,44.73,45.363c0.867-3.283,1.602-6.614,2.234-9.977
			c2.371,3.727,4.453,7.655,6.221,11.752c-13.746,52.645-54.752,95.158-106.874,110.789c-6.107-2.412-11.862-5.531-17.168-9.25
			c9.175-33.021,28.942-62.082,56.458-82.891c-3.58-3.828-7.322-7.496-11.193-11.02c-28.355,21.113-47.916,51.021-55.797,85.162
			C113.896,207.322,111.56,204.734,109.391,202.007z M164.092,232.869c44.336-15.291,78.697-50.621,92.738-95.336
			c0.609,4.07,0.93,8.236,0.93,12.477c0,3.514-0.221,6.977-0.643,10.377c-14.805,31.176-39.514,56.572-70.295,72.217
			c-4.023,0.602-8.141,0.918-12.33,0.918C170.971,233.521,167.5,233.298,164.092,232.869z"/>
		<path fill="#B7C534" d="M162.914,211.22c18.594-8.934,35.068-21.684,48.424-37.162c-2.385-4.297-4.891-8.512-7.576-12.59
			C186.629,174.927,172.674,191.888,162.914,211.22z"/>
		<path fill="#B7C534" d="M135.066,221.271c5.438-1.355,10.752-3.025,15.939-4.975c10.414-24.348,26.855-45.676,47.797-62.008
			c-3.053-4.211-6.285-8.271-9.65-12.211C162.725,161.867,143.737,189.654,135.066,221.271z"/>
	</g>
	<path fill="#FFFFFF" d="M214.797,14.938c-5.758-3.742-13.453-2.11-17.195,3.644c-3.742,5.755-2.109,13.452,3.645,17.194
		c32.561,21.174,52,56.97,52,95.754c0,46.225-27.631,86.107-67.24,104.029c-4.111,0.465-8.131,0.367-12.066-0.256
		c6.529-9.824,9.682-21.975,8.045-34.613c-3.596-27.756-28.926-47.354-56.581-43.771c-3.382,0.438-6.639,1.207-9.749,2.262
		l-4.842-9.061c6.885-1.807,15.578-4.668,20.803-8.562c9.66-7.203,12.6-7.836,19.229-17.646c6.153-9.104,3.575-20.157,4.464-29.74
		c0.389-4.213-4.275-10.71-10.216-11.101c-5.939-0.39-9.694,7.975-8.256,13.786c1.26,5.091-5.652,18.701-19.054,23.142
		c-3.255,1.076-12.35,0.295-19.878-0.625l-1.434-4.523c10.232-2.965,25.771-7.255,28.543-17.288
		c4.153-15.035,1.271-32.243,1.271-32.243s-3.311-7.85-6.906-14.09c1.074-10.084-0.803-35.112-3.642-37.154
		c-2.759-1.983-14.284,12.23-20.883,20.597c-4.676-0.722-7.706-0.116-7.706-0.116s4.754-25.535,1.734-28.984
		C86.139,2.438,68.85,9.756,53.806,21.18C30.517,38.863,11.829,67.339,6.14,90.426c-11.585,31.021-4.598,57.281,3.136,94.011
		l1.658,0.861c10.176,24.262,26.904,45.014,48.607,60.195c23.403,16.369,50.921,25.021,79.576,25.021
		c76.637,0,138.984-62.348,138.984-138.984C278.102,84.301,254.436,40.716,214.797,14.938z"/>
	<g>
		<path fill="#B7C534" d="M140.563,84.14l-7.676-6.41c0.99-1.186,24.361-29.153,33.274-37.923c0.367-0.36,0.713-0.801,1.039-1.308
			c-9.273-8.022-16.703-19.098-16.482-26.973c0.156-5.583,3.763-9.447,9.646-10.336c7.035-1.054,13.066,2.316,16.545,9.273
			c3.461,6.92,4.041,16.555,2.186,24.598c2.699,1.732,5.402,2.991,7.891,3.511c16.133,3.361,100.195-10.364,123.279-35.798
			l7.404,6.721c-15.4,16.968-50.055,27.208-69.342,31.802c-25.891,6.166-53.141,9.206-63.385,7.064
			c-3.104-0.648-6.396-2.054-9.664-3.988c-0.643,0.954-1.344,1.814-2.104,2.562C164.607,55.364,140.803,83.853,140.563,84.14z
			 M160.76,11.397c-0.145,0.469-0.123,2.299,1.617,5.72c1.699,3.339,4.459,7.036,7.713,10.419c0.238-4.417-0.369-9.092-2.123-12.602
			c-2.223-4.444-4.943-4.031-6.109-3.855C161.18,11.181,160.865,11.336,160.76,11.397z"/>
	</g>
	<g>
		<g>
			<path fill="#262626" d="M93.279,86.99c8.453-0.183,7.684,1.538,5.227,3.69c-2.461,2.152-6.302,4.15-9.531,1.386
				C89.232,92.286,79.588,87.288,93.279,86.99z"/>
		</g>
		<g>
			<path fill="#262626" d="M83.472,103.781c-0.21,0-0.422-0.003-0.638-0.01l0.082-2.578c5.097,0.149,8.503-1.936,9.663-2.773v-6.241
				h2.58v7.45l-0.435,0.385C94.547,100.172,90.396,103.781,83.472,103.781z"/>
		</g>
		<g>
			<path fill="#262626" d="M104.582,103.787c-5.014,0-11.1-3.473-11.356-3.621l1.287-2.235c0.057,0.033,5.75,3.276,10.069,3.276
				V103.787z"/>
		</g>
	</g>
</g>
</svg>
