<?xml version="1.0" encoding="utf-8"?>
<!-- Generator: Adobe Illustrator 16.0.4, SVG Export Plug-In . SVG Version: 6.00 Build 0)  -->
<!DOCTYPE svg PUBLIC "-//W3C//DTD SVG 1.1//EN" "http://www.w3.org/Graphics/SVG/1.1/DTD/svg11.dtd">
<svg version="1.1" id="Layer_1" xmlns="http://www.w3.org/2000/svg" xmlns:xlink="http://www.w3.org/1999/xlink" x="0px" y="0px"
	 width="512px" height="512px" viewBox="0 0 512 512" enable-background="new 0 0 512 512" xml:space="preserve">
<path id="javascript-code-icon" fill="#444444" d="M75.03,256c25.456,11.154,43.54,35.264,43.54,77.725v49.596
	c0,35.92,32.211,47.373,59.801,48.21v53.053c-75.226,0-119.625-25.761-119.625-95.33v-55.247c0-35.331-28.068-51.15-56.645-51.15
	v-53.709c28.577,0,56.645-15.817,56.645-51.148v-55.249c0-69.568,44.401-95.333,119.625-95.333v53.056
	c-27.589,0.837-59.801,12.29-59.801,48.211v49.594C118.57,220.736,100.485,244.845,75.03,256z M393.432,178.276v-49.594
	c0-35.921-32.215-47.374-59.805-48.211V27.415c75.229,0,119.626,25.765,119.626,95.333v55.249c0,35.331,28.067,51.148,56.645,51.148
	v53.71c-28.576,0-56.645,15.818-56.645,51.149v55.247c0,69.569-44.399,95.33-119.626,95.33V431.53
	c27.59-0.837,59.805-12.29,59.805-48.21v-49.596c0-42.461,18.081-66.57,43.54-77.725
	C411.517,244.845,393.432,220.736,393.432,178.276z M295.648,279.445c0,0,0,21.348,0,44.84c0,40.088-25.334,72.521-62.244,79.822
	l-6.995-15.119c17.094-6.443,27.935-27.127,27.935-42.664h-28.853v-66.885L295.648,279.445L295.648,279.445z M295.648,135.168
	h-70.156v70.271h70.156V135.168z"/>
</svg>
